<mxfile host="app.diagrams.net" modified="2021-03-25T16:34:58.136Z" agent="5.0 (Windows NT 10.0; Win64; x64) AppleWebKit/537.36 (KHTML, like Gecko) Chrome/89.0.4389.90 Safari/537.36" etag="ogMp0XXV84K1mazNw8mK" version="14.5.1" type="github">
  <diagram id="ocuWfuaNGDJ26_I2H6SO" name="Page-1">
    <mxGraphModel dx="865" dy="457" grid="1" gridSize="10" guides="1" tooltips="1" connect="1" arrows="1" fold="1" page="1" pageScale="1" pageWidth="827" pageHeight="1169" math="0" shadow="0">
      <root>
        <mxCell id="0" />
        <mxCell id="1" parent="0" />
        <mxCell id="tEwAyCv08CmWJKM7VAuX-1" value="Actor" style="shape=umlActor;verticalLabelPosition=bottom;verticalAlign=top;html=1;outlineConnect=0;" parent="1" vertex="1">
          <mxGeometry x="70" y="430" width="30" height="60" as="geometry" />
        </mxCell>
        <mxCell id="LUslN0Hp2iyH4F8RHUz0-1" value="" style="rounded=0;whiteSpace=wrap;html=1;" parent="1" vertex="1">
          <mxGeometry x="270" y="150" width="250" height="210" as="geometry" />
        </mxCell>
        <mxCell id="LUslN0Hp2iyH4F8RHUz0-2" value="Alerte&amp;nbsp;" style="text;html=1;strokeColor=none;fillColor=none;align=center;verticalAlign=middle;whiteSpace=wrap;rounded=0;" parent="1" vertex="1">
          <mxGeometry x="375" y="160" width="40" height="20" as="geometry" />
        </mxCell>
        <mxCell id="LUslN0Hp2iyH4F8RHUz0-4" value="" style="rounded=0;whiteSpace=wrap;html=1;" parent="1" vertex="1">
          <mxGeometry x="270" y="390" width="250" height="210" as="geometry" />
        </mxCell>
        <mxCell id="LUslN0Hp2iyH4F8RHUz0-5" value="AccÃ¨s" style="text;html=1;strokeColor=none;fillColor=none;align=center;verticalAlign=middle;whiteSpace=wrap;rounded=0;" parent="1" vertex="1">
          <mxGeometry x="375" y="390" width="40" height="20" as="geometry" />
        </mxCell>
        <mxCell id="LUslN0Hp2iyH4F8RHUz0-6" value="" style="rounded=0;whiteSpace=wrap;html=1;" parent="1" vertex="1">
          <mxGeometry x="270" y="650" width="250" height="210" as="geometry" />
        </mxCell>
        <mxCell id="LUslN0Hp2iyH4F8RHUz0-7" value="Personne" style="text;html=1;strokeColor=none;fillColor=none;align=center;verticalAlign=middle;whiteSpace=wrap;rounded=0;" parent="1" vertex="1">
          <mxGeometry x="375" y="650" width="40" height="20" as="geometry" />
        </mxCell>
        <mxCell id="APrOK2f-dDUVphas6wfj-1" value="BDD" style="shape=umlActor;verticalLabelPosition=bottom;verticalAlign=top;html=1;outlineConnect=0;" vertex="1" parent="1">
          <mxGeometry x="700" y="330" width="30" height="60" as="geometry" />
        </mxCell>
        <mxCell id="APrOK2f-dDUVphas6wfj-2" value="Onem2m&lt;br&gt;" style="shape=umlActor;verticalLabelPosition=bottom;verticalAlign=top;html=1;outlineConnect=0;" vertex="1" parent="1">
          <mxGeometry x="700" y="580" width="30" height="60" as="geometry" />
        </mxCell>
      </root>
    </mxGraphModel>
  </diagram>
</mxfile>
